<svg xmlns="http://www.w3.org/2000/svg" width="512" height="512" viewBox="0 0 512 512">
  <rect width="512" height="512" fill="#8c2d22"/>
  <line x1="256" y1="256" x2="656" y2="256" stroke="#fff3bd" stroke-width="3" opacity=".22"/><line x1="256" y1="256" x2="625.5518130045148" y2="409.0733729460359" stroke="#e7b3a8" stroke-width="3" opacity=".22"/><line x1="256" y1="256" x2="538.842712474619" y2="538.842712474619" stroke="#fff3bd" stroke-width="3" opacity=".22"/><line x1="256" y1="256" x2="409.07337294603593" y2="625.5518130045148" stroke="#e7b3a8" stroke-width="3" opacity=".22"/><line x1="256" y1="256" x2="256" y2="656" stroke="#fff3bd" stroke-width="3" opacity=".22"/><line x1="256" y1="256" x2="102.9266270539641" y2="625.5518130045148" stroke="#e7b3a8" stroke-width="3" opacity=".22"/><line x1="256" y1="256" x2="-26.842712474618963" y2="538.842712474619" stroke="#fff3bd" stroke-width="3" opacity=".22"/><line x1="256" y1="256" x2="-113.55181300451471" y2="409.073372946036" stroke="#e7b3a8" stroke-width="3" opacity=".22"/><line x1="256" y1="256" x2="-144" y2="256.00000000000006" stroke="#fff3bd" stroke-width="3" opacity=".22"/><line x1="256" y1="256" x2="-113.55181300451471" y2="102.92662705396413" stroke="#e7b3a8" stroke-width="3" opacity=".22"/><line x1="256" y1="256" x2="-26.842712474619077" y2="-26.842712474618963" stroke="#fff3bd" stroke-width="3" opacity=".22"/><line x1="256" y1="256" x2="102.92662705396387" y2="-113.5518130045146" stroke="#e7b3a8" stroke-width="3" opacity=".22"/><line x1="256" y1="256" x2="255.99999999999991" y2="-144" stroke="#fff3bd" stroke-width="3" opacity=".22"/><line x1="256" y1="256" x2="409.073372946036" y2="-113.55181300451466" stroke="#e7b3a8" stroke-width="3" opacity=".22"/><line x1="256" y1="256" x2="538.842712474619" y2="-26.842712474619077" stroke="#fff3bd" stroke-width="3" opacity=".22"/><line x1="256" y1="256" x2="625.5518130045145" y2="102.92662705396384" stroke="#e7b3a8" stroke-width="3" opacity=".22"/>
  <circle cx="256" cy="256" r="220.77439999999999" fill="none" stroke="#fff3bd" stroke-width="9.0112" opacity=".55"/>
  <g transform="translate(256 283.0336) scale(1.5018666666666667)">
    <path d="M-120 58c30-10 50 10 80 0s50-10 80 0 50 10 80 0" fill="none" stroke="#cfe6f2" stroke-width="9" stroke-linecap="round"/>
    <path d="M-110 20h220l-40 48h-140z" fill="#4a2f1c" stroke="#fff3bd" stroke-width="7" stroke-linejoin="round"/>
    <path d="M0 20V-128" stroke="#fff3bd" stroke-width="8" stroke-linecap="round"/>
    <path d="M-96 8 78-136" stroke="#fff3bd" stroke-width="9" stroke-linecap="round"/>
    <path d="M-86 6 66-122 54 14z" fill="#fbf3dc" stroke="#1d2922" stroke-width="5" stroke-linejoin="round"/>
    <path d="M0-128l40-14-40-16z" fill="#fff3bd"/>
  </g>
</svg>